<svg width="70" height="70" viewBox="0 0 70 70" fill="none" xmlns="http://www.w3.org/2000/svg">
<g id="Group 34">
<rect id="Rectangle 12" opacity="0.05" width="70" height="70" rx="6" fill="#263959"/>
<g id="Group 23">
<path id="Vector" d="M49 35.5006C49 33.8262 47.9296 32.4446 46.5624 32.278V23.2982C46.5624 23.2952 46.5608 23.2923 46.5608 23.2887C46.5602 23.2655 46.5535 23.244 46.5486 23.222C46.5441 23.2065 46.543 23.1899 46.5369 23.1756C46.5302 23.1589 46.5186 23.1452 46.5086 23.1298C46.4975 23.1131 46.4881 23.0952 46.4736 23.0815C46.4709 23.0792 46.4703 23.0756 46.4675 23.0732C46.4564 23.0631 46.4431 23.0595 46.432 23.0512C46.4159 23.0399 46.4004 23.0286 46.3821 23.0208C46.3627 23.0131 46.3427 23.0107 46.3222 23.0077C46.31 23.006 46.2983 23 46.2855 23C46.2822 23 46.28 23.0018 46.2767 23.0018C46.255 23.0024 46.2345 23.0095 46.2129 23.0155C46.1995 23.0196 46.1846 23.0208 46.1718 23.0274C46.1568 23.0351 46.1435 23.0476 46.1291 23.0583C46.1135 23.0702 46.0969 23.081 46.0841 23.0958C46.0819 23.0982 46.0786 23.0994 46.0764 23.1018C45.466 23.8524 44.7874 24.606 44 25.3315V45.669C44.7874 46.394 45.466 47.1476 46.0764 47.8982C46.0786 47.9012 46.0819 47.9018 46.0841 47.9042C46.103 47.9262 46.1268 47.9429 46.1518 47.9583C46.1601 47.9631 46.1668 47.9708 46.1757 47.975C46.2095 47.9905 46.2467 48 46.2855 48C46.3205 48 46.3543 47.9917 46.3876 47.978C46.4004 47.9726 46.4109 47.9631 46.4226 47.956C46.4376 47.9458 46.4548 47.9399 46.4681 47.9268C46.4709 47.9244 46.4714 47.9208 46.4742 47.9185C46.4881 47.9042 46.4981 47.8863 46.5092 47.8696C46.5191 47.8548 46.5308 47.8411 46.5375 47.8244C46.5441 47.8101 46.5452 47.794 46.5491 47.7786C46.5547 47.7565 46.5608 47.7351 46.5613 47.7119C46.5613 47.7083 46.563 47.706 46.563 47.7024V38.7226C47.9296 38.5565 49 37.175 49 35.5006Z" fill="#263959"/>
<path id="Vector_2" d="M21 35.5003C21 38.4299 22.7725 40.8272 25 41V30C22.773 30.1728 21 32.5701 21 35.5003Z" fill="#263959"/>
<path id="Vector_3" d="M26 40.5236C26.3502 40.5253 26.6839 40.536 27.0223 40.5436L27.873 47.7396C27.8748 47.7555 27.8825 47.7691 27.8872 47.7845C27.8913 47.7998 27.8949 47.8164 27.9013 47.8305C27.9108 47.8506 27.9237 47.8671 27.9373 47.8837C27.9467 47.8961 27.9538 47.9085 27.965 47.9191C27.9821 47.935 28.0022 47.9463 28.0228 47.9575C28.0346 47.9646 28.044 47.9728 28.0564 47.9782C28.0906 47.9917 28.1277 48 28.166 48H31.1139C31.1245 48 31.1351 47.9994 31.1457 47.9982C31.1604 47.9965 31.1722 47.9888 31.1864 47.9858C31.2058 47.9805 31.2247 47.9764 31.2424 47.9681C31.2595 47.9593 31.2742 47.948 31.289 47.9362C31.3037 47.925 31.319 47.915 31.3314 47.9002C31.3438 47.8866 31.3532 47.8701 31.3627 47.8536C31.3727 47.8376 31.3821 47.8223 31.3886 47.8045C31.3957 47.7862 31.3974 47.7667 31.4004 47.7467C31.4022 47.7325 31.4086 47.7195 31.4086 47.7047C31.4086 47.6988 31.4057 47.6941 31.4057 47.6894C31.4057 47.6835 31.4075 47.6788 31.4069 47.6734L30.6587 40.7639C36.6569 41.3828 40.3812 43.1336 43 45.2004V26C39.7615 28.5563 34.8346 30.6302 26.0006 30.6757V40.5236H26Z" fill="#263959"/>
</g>
</g>
</svg>
