<svg width="70" height="70" viewBox="0 0 70 70" fill="none" xmlns="http://www.w3.org/2000/svg">
<g id="Group 28">
<rect id="Rectangle 12" opacity="0.05" width="70" height="70" rx="6" fill="#263959"/>
<g id="Group">
<path id="Vector" d="M26.8023 35.8279H21C21.1973 39.2649 22.629 42.4687 25.0832 44.9229C27.5612 47.4009 30.8032 48.8371 34.2779 49.0122V43.2127C30.3434 42.8693 27.1924 39.749 26.8023 35.8279Z" fill="#263959"/>
<path id="Vector_2" d="M35.9211 43.1929V49C39.3204 48.781 42.486 47.3534 44.9165 44.9229C47.3708 42.4687 48.8024 39.2649 48.9997 35.8279H43.1974C42.8139 39.6826 39.7624 42.7634 35.9211 43.1929Z" fill="#263959"/>
<path id="Vector_3" d="M34.2779 26.7996V21C30.8031 21.175 27.5612 22.6113 25.0831 25.0893C22.629 27.5435 21.1973 30.7473 21 34.1843H26.8024C27.1924 30.2632 30.3434 27.1428 34.2779 26.7996Z" fill="#263959"/>
<path id="Vector_4" d="M43.1974 34.1842H48.9997C48.8025 30.7472 47.3708 27.5434 44.9165 25.0892C42.486 22.6586 39.3204 21.231 35.9211 21.012V26.8192C39.7623 27.2487 42.8139 30.3295 43.1974 34.1842Z" fill="#263959"/>
<path id="Vector_5" d="M33.4115 34.1843V35.2759C33.4115 35.5226 33.3706 35.7025 33.2961 35.8278C33.1974 35.9937 33.0396 36.0637 32.8381 36.0637C32.6365 36.0637 32.4787 35.9937 32.38 35.8278C32.3055 35.7025 32.2646 35.5226 32.2646 35.2759V34.1843V33.25H30.9998V34.1842V35.3133C30.9998 35.498 31.0183 35.6695 31.0538 35.8277C31.2346 36.6338 31.8641 37.0873 32.8273 37.0873C33.4717 37.0873 33.9667 36.8844 34.278 36.5088C34.5235 36.2127 34.6548 35.8094 34.6548 35.3133V33.25H34.278H33.4115V34.1843Z" fill="#263959"/>
<path id="Vector_6" d="M37.8274 33.25L37.2116 34.1843L37.2057 34.1933L37.1997 34.1843L36.5679 33.25H35.9212H35.1477L36.4554 35.1097L35.9408 35.8278L35.9212 35.855L35.0995 37.0015H35.9212H36.5412L37.1736 35.9993L37.822 37.0015H39.2691L38.4325 35.8278L37.8864 35.0615L38.517 34.1843L39.1887 33.25H37.8274Z" fill="#263959"/>
</g>
</g>
</svg>
