<svg width="70" height="70" viewBox="0 0 70 70" fill="none" xmlns="http://www.w3.org/2000/svg">
<g id="Group 26">
<rect id="Rectangle 12" opacity="0.05" width="70" height="70" rx="6" fill="#263959"/>
<g id="Group 22">
<path id="Vector" d="M31.6205 24.6622H30.655V25.6277H31.6205V24.6622Z" fill="#263959"/>
<path id="Vector_2" d="M29.6898 24.6622H28.7242V25.6277H29.6898V24.6622Z" fill="#263959"/>
<path id="Vector_3" d="M27.7586 24.6622H26.7931V25.6277H27.7586V24.6622Z" fill="#263959"/>
<path id="Vector_4" d="M33.5517 24.6622H32.5862V25.6277H33.5517V24.6622Z" fill="#263959"/>
<path id="Vector_5" d="M39.3448 24.6622H38.3793V25.6277H39.3448V24.6622Z" fill="#263959"/>
<path id="Vector_6" d="M35.4829 24.6622H34.5173V25.6277H35.4829V24.6622Z" fill="#263959"/>
<path id="Vector_7" d="M38.0106 31.7897L39.5414 31.024L48.8003 21.7657L48.0346 21L38.7763 30.2588L38.0106 31.7897Z" fill="#263959"/>
<path id="Vector_8" d="M37.4135 24.6622H36.448V25.6277H37.4135V24.6622Z" fill="#263959"/>
<path id="Vector_9" d="M25.8275 24.6622H24.8619V25.6277H25.8275V24.6622Z" fill="#263959"/>
<path id="Vector_10" d="M37.8964 43.9727H32.1033V46.8692H37.8964V43.9727Z" fill="#263959"/>
<path id="Vector_11" d="M23.4139 35.283H40.7932C40.9213 35.283 41.044 35.2321 41.1346 35.1416C41.2251 35.051 41.276 34.9282 41.276 34.8002V30.6552L40.169 31.7622C40.1323 31.799 40.0899 31.8297 40.0435 31.853L37.1469 33.3012C37.0562 33.3475 36.9532 33.364 36.8526 33.3482C36.7519 33.3324 36.6589 33.2851 36.5867 33.2132C36.5146 33.1414 36.467 33.0485 36.4508 32.9479C36.4347 32.8474 36.4507 32.7443 36.4967 32.6534L37.9449 29.7568C37.9682 29.7104 37.9989 29.668 38.0357 29.6313L41.276 26.3934V23.214C41.276 23.086 41.2251 22.9632 41.1346 22.8726C41.044 22.7821 40.9213 22.7312 40.7932 22.7312H23.4139C23.2859 22.7312 23.1631 22.7821 23.0725 22.8726C22.982 22.9632 22.9312 23.086 22.9312 23.214V34.8002C22.9312 34.9282 22.982 35.051 23.0725 35.1416C23.1631 35.2321 23.2859 35.283 23.4139 35.283ZM39.3449 33.3519H40.3105V34.3174H39.3449V33.3519ZM37.4139 33.3519H38.3794V34.3174H37.4139V33.3519ZM26.7932 34.3174H25.8277V33.3519H26.7932V34.3174ZM26.7932 32.3864H25.8277V31.4209H26.7932V32.3864ZM26.7932 30.4554H25.8277V29.4899H26.7932V30.4554ZM26.7932 28.5243H25.8277V27.5588H26.7932V28.5243ZM28.7243 34.3174H27.7587V33.3519H28.7243V34.3174ZM28.7243 32.3864H27.7587V31.4209H28.7243V32.3864ZM28.7243 30.4554H27.7587V29.4899H28.7243V30.4554ZM28.7243 28.5243H27.7587V27.5588H28.7243V28.5243ZM30.6553 34.3174H29.6898V33.3519H30.6553V34.3174ZM30.6553 32.3864H29.6898V31.4209H30.6553V32.3864ZM30.6553 30.4554H29.6898V29.4899H30.6553V30.4554ZM30.6553 28.5243H29.6898V27.5588H30.6553V28.5243ZM32.5863 34.3174H31.6208V33.3519H32.5863V34.3174ZM32.5863 32.3864H31.6208V31.4209H32.5863V32.3864ZM32.5863 30.4554H31.6208V29.4899H32.5863V30.4554ZM32.5863 28.5243H31.6208V27.5588H32.5863V28.5243ZM34.5174 34.3174H33.5518V33.3519H34.5174V34.3174ZM34.5174 32.3864H33.5518V31.4209H34.5174V32.3864ZM34.5174 30.4554H33.5518V29.4899H34.5174V30.4554ZM34.5174 28.5243H33.5518V27.5588H34.5174V28.5243ZM36.4484 34.3174H35.4829V33.3519H36.4484V34.3174ZM36.4484 32.3864H35.4829V31.4209H36.4484V32.3864ZM36.4484 30.4554H35.4829V29.4899H36.4484V30.4554ZM36.4484 28.5243H35.4829V27.5588H36.4484V28.5243ZM38.3794 28.5243H37.4139V27.5588H38.3794V28.5243ZM23.8967 24.1795C23.8967 24.0515 23.9475 23.9287 24.0381 23.8381C24.1286 23.7476 24.2514 23.6967 24.3794 23.6967H39.8277C39.9557 23.6967 40.0785 23.7476 40.1691 23.8381C40.2596 23.9287 40.3105 24.0515 40.3105 24.1795V26.1105C40.3105 26.2386 40.2596 26.3614 40.1691 26.4519C40.0785 26.5424 39.9557 26.5933 39.8277 26.5933H24.3794C24.2514 26.5933 24.1286 26.5424 24.0381 26.4519C23.9475 26.3614 23.8967 26.2386 23.8967 26.1105V24.1795ZM23.8967 27.5588H24.8622V28.5243H23.8967V27.5588ZM23.8967 29.4899H24.8622V30.4554H23.8967V29.4899ZM23.8967 31.4209H24.8622V32.3864H23.8967V31.4209ZM23.8967 33.3519H24.8622V34.3174H23.8967V33.3519Z" fill="#263959"/>
<path id="Vector_12" d="M39.345 47.8345H30.6554C30.5273 47.8345 30.4045 47.8854 30.314 47.9759C30.2235 48.0665 30.1726 48.1893 30.1726 48.3173V48.8001H39.8278V48.3173C39.8278 48.1893 39.7769 48.0665 39.6864 47.9759C39.5958 47.8854 39.4731 47.8345 39.345 47.8345Z" fill="#263959"/>
<path id="Vector_13" d="M21 41.5588C21 41.9429 21.1526 42.3113 21.4242 42.5829C21.6958 42.8545 22.0642 43.0071 22.4483 43.0071H47.5517C47.9358 43.0071 48.3042 42.8545 48.5758 42.5829C48.8474 42.3113 49 41.9429 49 41.5588V40.1105H21V41.5588ZM46.5862 41.076H47.5517V42.0415H46.5862V41.076ZM44.6552 41.076H45.6207V42.0415H44.6552V41.076ZM42.7241 41.076H43.6897V42.0415H42.7241V41.076Z" fill="#263959"/>
<path id="Vector_14" d="M47.5517 25.6278H46.3033L42.2414 29.6897V34.8002C42.2414 35.1843 42.0888 35.5527 41.8172 35.8243C41.5456 36.0959 41.1772 36.2485 40.7931 36.2485H23.4138C23.0297 36.2485 22.6613 36.0959 22.3897 35.8243C22.1181 35.5527 21.9655 35.1843 21.9655 34.8002V25.7166C21.6841 25.8161 21.4403 26.0001 21.2675 26.2434C21.0947 26.4868 21.0012 26.7776 21 27.0761V39.145H49V27.0761C49 26.6919 48.8474 26.3236 48.5758 26.052C48.3042 25.7804 47.9358 25.6278 47.5517 25.6278Z" fill="#263959"/>
</g>
</g>
</svg>
