<svg width="70" height="70" viewBox="0 0 70 70" fill="none" xmlns="http://www.w3.org/2000/svg">
<g id="Group 37">
<rect id="Rectangle 12" opacity="0.05" width="70" height="70" rx="6" fill="#263959"/>
<g id="Group">
<path id="Vector" d="M35 21C27.2877 21 21 27.2877 21 35C21 42.7123 27.2877 49 35 49C42.7123 49 49 42.7123 49 35C49 27.2877 42.7123 21 35 21ZM41.7789 33.8947H38.8316C38.807 32.5684 38.6105 31.3158 38.2912 30.2596C38.9298 29.9404 39.4702 29.5719 39.8386 29.2772C40.993 30.4807 41.7053 32.1018 41.7789 33.8947ZM39.2982 34.4842C39.1263 34.5088 38.9789 34.5088 38.8316 34.5333C38.8316 34.4842 38.8316 34.4351 38.8316 34.386H41.7544C41.7544 34.5088 41.7544 34.6316 41.7298 34.7544C41.3123 34.607 40.7474 34.5333 40.0105 34.5088V34.4842H39.2982ZM39.5193 28.9333C39.1754 29.2035 38.7088 29.5228 38.1439 29.793C37.7754 28.7614 37.2842 27.9018 36.6947 27.3123C37.7754 27.6316 38.7333 28.1965 39.5193 28.9333ZM34.9018 27.0175C35.1474 27.0175 35.393 27.0421 35.6386 27.0912C36.4982 27.5579 37.2105 28.614 37.7018 30.014C36.9158 30.3579 35.9825 30.6035 34.8772 30.6281V27.0175H34.9018ZM34.9018 31.0947C36.0316 31.0702 37.0386 30.8 37.8737 30.4561C38.1684 31.4632 38.3649 32.6421 38.3895 33.8947H34.9018V31.0947ZM32.593 27.3123C32.0035 27.9018 31.5123 28.7614 31.1684 29.7684C30.6035 29.4737 30.1614 29.1789 29.8175 28.9088C30.6035 28.1719 31.5614 27.6316 32.593 27.3123ZM29.4737 29.2526C29.8421 29.5474 30.3579 29.9158 31.0211 30.2351C30.7018 31.3158 30.5053 32.5439 30.4807 33.8947H27.5333C27.607 32.1018 28.3193 30.4561 29.4737 29.2526ZM27.5333 34.3614H30.4561C30.4807 35.7368 30.6772 37.014 31.0211 38.0947C30.407 38.414 29.8912 38.7579 29.5228 39.0526C28.3439 37.8491 27.607 36.2035 27.5333 34.3614ZM29.8667 39.3965C30.2105 39.1263 30.6281 38.8316 31.1684 38.5614C31.5123 39.5193 31.9789 40.3298 32.5193 40.9193C31.5368 40.6246 30.6281 40.0842 29.8667 39.3965ZM34.4105 41.2386C34.1158 41.2386 33.8211 41.1895 33.5263 41.1649C32.7404 40.6737 32.0772 39.6667 31.6105 38.3649C32.3719 38.0211 33.3298 37.7754 34.4105 37.7263V41.2386ZM34.4105 37.2596C33.2561 37.3088 32.2737 37.5544 31.4632 37.9228C31.1439 36.8912 30.9719 35.6632 30.9474 34.386H34.4105V37.2596ZM34.4105 33.8947H30.9474C30.9719 32.6421 31.1439 31.4632 31.4632 30.4316C32.2737 30.7754 33.2807 31.0456 34.4105 31.0947V33.8947ZM34.4105 30.6281C33.3053 30.5789 32.3719 30.3333 31.6105 29.9895C32.1018 28.5895 32.8386 27.5579 33.6737 27.0912C33.9193 27.0667 34.1649 27.0421 34.4105 27.0175V30.6281ZM36.6456 38.2421V39.1018V39.6421V40.3789C36.3754 40.6982 36.1053 40.9684 35.786 41.1649C35.4912 41.214 35.1965 41.2386 34.9018 41.2386V37.7263C35.5404 37.7509 36.1053 37.8491 36.6456 37.9719V38.2421ZM36.6456 35.5403C36.5965 35.6877 36.5719 35.8596 36.5719 36.0316C36.5719 36.2035 36.5965 36.3754 36.6456 36.5228V36.7684V37.4807C36.1053 37.3579 35.5404 37.2596 34.9018 37.2351V34.3614H38.3649C38.3649 34.4351 38.3649 34.5088 38.3649 34.5579C37.4316 34.6807 36.9158 34.9509 36.6947 35.4175L36.6456 35.5403ZM42.393 41.6807C42.393 41.7789 42.3684 41.8526 42.3684 41.8772C42.3684 42.6877 41.214 42.9579 39.6667 42.9579C38.1684 42.9579 37.0386 42.7123 36.9649 41.9509V41.1404C37.2596 41.8035 38.3404 42.0491 39.6912 42.0491C40.9684 42.0491 42.0737 41.8281 42.4175 41.214V41.6807H42.393ZM42.393 40.2807C42.393 40.3789 42.3684 40.4526 42.3684 40.4772C42.3684 41.2877 41.214 41.5579 39.6667 41.5579C38.1684 41.5579 37.0386 41.3123 36.9649 40.5509V39.7404C37.2596 40.4035 38.3404 40.6491 39.6912 40.6491C40.9684 40.6491 42.0737 40.4281 42.4175 39.814V40.2807H42.393ZM42.393 38.8316C42.393 38.9298 42.3684 39.0035 42.3684 39.0281C42.3684 39.8386 41.214 40.1088 39.6667 40.1088C38.1684 40.1088 37.0386 39.8632 36.9649 39.1018V38.2912C37.2596 38.9544 38.3404 39.2 39.6912 39.2C40.9684 39.2 42.0737 38.9789 42.4175 38.3649V38.8316H42.393ZM42.393 37.3579C42.393 37.4561 42.3684 37.5298 42.3684 37.5544C42.3684 38.3649 41.214 38.6351 39.6667 38.6351C38.1684 38.6351 37.0386 38.3895 36.9649 37.6281V36.8175C37.2596 37.4807 38.3404 37.7263 39.6912 37.7263C40.9684 37.7263 42.0737 37.5053 42.4175 36.8912V37.3579H42.393ZM39.7158 37.2842C39.6912 37.2842 39.6912 37.2842 39.6667 37.2842C39.6421 37.2842 39.6421 37.2842 39.6175 37.2842C37.1123 37.2351 36.8667 36.6947 36.8667 36.0316C36.8667 35.3684 37.1123 34.8526 39.6175 34.7789C39.6421 34.7789 39.6421 34.7789 39.6667 34.7789C39.6912 34.7789 39.6912 34.7789 39.7158 34.7789C42.2211 34.8281 42.4667 35.3684 42.4667 36.0316C42.4667 36.6947 42.1965 37.2351 39.7158 37.2842Z" fill="#0C1523"/>
</g>
</g>
</svg>
