<svg width="70" height="70" viewBox="0 0 70 70" fill="none" xmlns="http://www.w3.org/2000/svg">
<g id="Group 31">
<rect id="Rectangle 12" opacity="0.05" width="70" height="70" rx="6" fill="#263959"/>
<g id="Group">
<path id="Vector" d="M43.3273 41.8661L42.7509 43.3648C42.6356 43.5954 42.5203 43.8259 42.405 43.9412C42.405 44.0565 39.5229 46.1316 39.6382 46.1316C39.1771 46.4774 38.6007 46.5927 38.0243 46.3622C37.5631 46.1316 37.2173 45.7858 37.102 45.3246H25.689C25.3432 45.3246 25.1126 45.0941 25.1126 44.7482C25.1126 44.4024 25.3432 44.1718 25.689 44.1718H36.8715L36.5256 41.7509C36.5256 41.6356 36.5256 41.6356 36.5256 41.5203C36.5256 41.405 36.5256 41.405 36.5256 41.2897H25.689C25.3432 41.2897 25.1126 41.0592 25.1126 40.7133C25.1126 40.3675 25.3432 40.1369 25.689 40.1369H36.9867L38.1396 37.2548H25.689C25.3432 37.2548 25.1126 37.0243 25.1126 36.6784C25.1126 36.3326 25.3432 36.102 25.689 36.102H38.6007L39.7535 33.22C39.7535 33.22 39.7535 33.22 39.6382 33.22H25.689C25.3432 33.22 25.1126 32.9894 25.1126 32.6435C25.1126 32.2977 25.3432 32.0671 25.689 32.0671H39.7535C39.9841 32.0671 40.0994 32.1824 40.2146 32.2977L42.1744 27.5711L42.8661 25.9572C42.9814 25.6113 43.212 25.2655 43.4426 25.0349V22.7292C43.4426 21.807 42.6356 21 41.7133 21H23.7292C22.807 21 22 21.807 22 22.7292V46.9386C22 47.8608 22.807 48.6678 23.7292 48.6678H41.598C42.5203 48.6678 43.3273 47.8608 43.3273 46.9386V46.4774V46.3622V41.8661ZM28.917 24.3432H36.5256C36.8714 24.3432 37.102 24.5738 37.102 24.9196C37.102 25.2655 36.8714 25.496 36.5256 25.496H28.917C28.5711 25.496 28.3405 25.2655 28.3405 24.9196C28.3405 24.5738 28.5711 24.3432 28.917 24.3432ZM25.689 28.2628H39.7535C40.0994 28.2628 40.3299 28.4934 40.3299 28.8392C40.3299 29.1851 40.0994 29.4156 39.7535 29.4156H25.689C25.3432 29.4156 25.1126 29.1851 25.1126 28.8392C25.1126 28.6086 25.3432 28.2628 25.689 28.2628Z" fill="#263959"/>
<path id="Vector_2" d="M42.9818 29.992C42.7513 29.8767 42.636 29.7615 42.5207 29.6462L37.6788 41.405C37.5635 41.6356 37.6788 41.9814 37.9094 42.0967L40.9067 43.3648C41.1373 43.4801 41.1373 43.3648 41.3679 43.3648C41.4832 43.3648 41.5984 43.2495 41.7137 43.019L46.5556 31.3754C46.325 31.3754 46.2097 31.3754 45.9792 31.2601L42.9818 29.992Z" fill="#263959"/>
<path id="Vector_3" d="M46.6708 25.496C46.0944 25.2655 45.518 25.2655 45.0569 25.496C44.4805 25.7266 44.1346 26.1877 43.904 26.6489L43.0971 28.2628C42.9818 28.4934 43.0971 28.8392 43.4429 28.9545L46.4403 30.2226C46.6708 30.3379 47.0167 30.2226 47.132 29.8768L47.8236 28.2628C48.2848 27.2253 47.8236 25.9572 46.6708 25.496Z" fill="#263959"/>
<path id="Vector_4" d="M38.3702 45.3245C38.4855 45.3245 38.4855 45.3245 38.6007 45.3245C38.716 45.3245 38.8313 45.3245 38.9466 45.2093L40.2147 44.287L37.7938 43.2495L38.0243 44.8634C38.0243 45.094 38.1396 45.2093 38.3702 45.3245Z" fill="#263959"/>
</g>
</g>
</svg>
