<svg width="17" height="16" viewBox="0 0 17 16" fill="none" xmlns="http://www.w3.org/2000/svg">
<path id="Vector" d="M16.9555 6.04549C16.8436 5.70742 16.5383 5.46806 16.1785 5.43609L11.2711 4.99853L9.33166 0.539087C9.18847 0.211457 8.86266 0 8.50001 0C8.13736 0 7.81142 0.211457 7.66914 0.539087L5.72971 4.99853L0.821541 5.43609C0.461748 5.4687 0.157079 5.70805 0.044498 6.04549C-0.0674346 6.38357 0.0359376 6.75438 0.308052 6.98877L4.01765 10.1834L2.92388 14.9147C2.84385 15.2626 2.98133 15.6223 3.27524 15.831C3.43321 15.9437 3.61882 16 3.80507 16C3.96512 16 4.1253 15.9582 4.26836 15.8741L8.50001 13.3891L12.7309 15.8741C13.0413 16.0563 13.4315 16.0396 13.7248 15.831C14.0187 15.6223 14.1562 15.2626 14.0761 14.9147L12.9824 10.1834L16.692 6.98877C16.964 6.75438 17.0675 6.38433 16.9555 6.04549Z" fill="#F8B200"/>
</svg>
